<svg width="120" height="120" viewBox="0 0 120 120" fill="none" xmlns="http://www.w3.org/2000/svg">
<path d="M93.2773 80.5888C92.7324 79.7215 92.02 78.9713 91.1818 78.3824C90.3437 77.7935 89.3965 77.3776 88.3957 77.1589C84.5668 76.2684 81.2461 73.8985 79.1591 70.5672C77.0722 67.2357 76.3888 63.2137 77.2582 59.38C77.5924 57.8982 77.4814 56.3508 76.939 54.9319C76.3967 53.513 75.4472 52.286 74.2098 51.405C72.9723 50.5241 71.5022 50.0284 69.9839 49.9802C68.4657 49.9321 66.9671 50.3335 65.6763 51.1342C64.3855 51.935 63.3602 53.0993 62.7289 54.4809C62.0977 55.8626 61.8887 57.3998 62.1283 58.8998C62.3679 60.3998 63.0454 61.7956 64.0757 62.9117C65.1059 64.0279 66.4431 64.8149 67.9191 65.1736C69.8286 65.6043 71.6343 66.4076 73.2328 67.5376C74.8312 68.6675 76.1909 70.1018 77.2339 71.7582C78.2769 73.4147 78.9828 75.2607 79.311 77.1905C79.6393 79.1202 79.5834 81.0958 79.1467 83.0039C78.888 84.234 78.9341 85.5087 79.281 86.7168C79.6279 87.9249 80.265 89.0299 81.1368 89.9355C82.0086 90.841 83.0886 91.5196 84.2827 91.912C85.4768 92.3045 86.7488 92.3989 87.9878 92.1872C89.2268 91.9755 90.3952 91.4639 91.3912 90.6971C92.3873 89.9303 93.1805 88.9316 93.7021 87.788C94.2236 86.6442 94.4576 85.3904 94.3836 84.1357C94.3095 82.8808 93.9298 81.6632 93.2773 80.5888Z" fill="#695CFE"/>
<path d="M45.8879 72.0334C47.2363 72.7692 48.7736 73.0854 50.3029 72.9413C51.8322 72.7973 53.2835 72.1996 54.4707 71.225C55.658 70.2503 56.527 68.9432 56.9661 67.4714C57.4053 65.9994 57.3946 64.4299 56.9355 62.9641C56.3536 61.0949 56.1463 59.1294 56.3255 57.18C56.5048 55.2307 57.0669 53.3358 57.9799 51.6042C58.8929 49.8726 60.1387 48.3382 61.6458 47.0889C63.153 45.8396 64.8918 44.9003 66.7628 44.3244C68.2139 43.8699 69.498 42.9963 70.4537 41.8136C71.4094 40.631 71.994 39.1921 72.1338 37.678C72.2736 36.1638 71.9625 34.6421 71.2396 33.3045C70.5166 31.9668 69.4141 30.8728 68.071 30.1603C66.7277 29.4477 65.2037 29.1483 63.6908 29.2999C62.1778 29.4514 60.7434 30.047 59.5682 31.0119C58.3929 31.9766 57.5293 33.2675 57.0859 34.722C56.6427 36.1765 56.6395 37.7296 57.0768 39.1859C58.2248 42.9455 57.8365 47.0069 55.9972 50.481C54.1578 53.955 51.0171 56.5589 47.2624 57.7228C45.7802 58.1526 44.4611 59.0175 43.4759 60.2055C42.4907 61.3935 41.8848 62.8498 41.7367 64.386C41.5887 65.9222 41.9052 67.4675 42.6454 68.8217C43.3855 70.176 44.5151 71.2769 45.8879 71.9819V72.0334Z" fill="#695CFE"/>
<path d="M65.7223 70.7742C64.6975 70.8102 63.6902 71.0503 62.7593 71.4805C61.8285 71.9106 60.9928 72.5221 60.3012 73.2793C57.6181 76.1491 53.9079 77.8398 49.9818 77.9819C46.0555 78.1239 42.2328 76.7056 39.3493 74.0371C38.6043 73.3381 37.7277 72.7941 36.7706 72.4368C35.8136 72.0796 34.795 71.9162 33.7742 71.9561C32.5176 72.0154 31.2946 72.3813 30.212 73.022C29.1293 73.6626 28.2201 74.5585 27.5634 75.6313C26.9066 76.7043 26.5225 77.9216 26.4445 79.1771C26.3665 80.4327 26.5969 81.6882 27.1158 82.8342C27.6346 83.9802 28.426 84.9818 29.421 85.7515C30.416 86.5213 31.5842 87.0357 32.8237 87.2501C34.0633 87.4644 35.3365 87.3722 36.5322 86.9813C37.7279 86.5905 38.8098 85.9129 39.6833 85.0077C41.0121 83.569 42.6117 82.4066 44.3904 81.5871C46.1692 80.7675 48.0921 80.3069 50.0491 80.2318C52.0062 80.1566 53.9588 80.4682 55.7952 81.1489C57.6316 81.8296 59.3157 82.8659 60.7509 84.1984C61.6853 85.0427 62.8123 85.6451 64.0334 85.953C65.2545 86.261 66.5324 86.2651 67.7554 85.9649C68.9784 85.6648 70.1092 85.0695 71.0489 84.2312C71.9887 83.393 72.7087 82.3371 73.1461 81.1562C73.5834 79.9752 73.7247 78.7052 73.5577 77.4569C73.3907 76.2088 72.9203 75.0206 72.1877 73.9962C71.4553 72.9718 70.483 72.1426 69.3559 71.5809C68.2288 71.0193 66.9812 70.7422 65.7223 70.7742Z" fill="#695CFE"/>
</svg>
