<svg width="24" height="24" viewBox="0 0 24 24" fill="none" xmlns="http://www.w3.org/2000/svg">
<path d="M19 2H5C3.3 2 2 3.3 2 5V19C2 20.7 3.3 22 5 22H19C20.7 22 22 20.7 22 19V5C22 3.3 20.7 2 19 2ZM12 6C13.5 6 14.8 7.2 14.8 8.8C14.8 10.4 13.6 11.6 12 11.6C10.4 11.6 9.2 10.4 9.2 8.8C9.2 7.2 10.5 6 12 6ZM16.6 17.9C16.5 17.9 16.4 18 16.2 18H7.7C7.1 18 6.7 17.5 6.7 17C6.7 16.9 6.7 16.8 6.8 16.6C7.9 13.7 11.1 12.3 14 13.4C15.5 14 16.6 15.1 17.2 16.6C17.4 17.2 17.1 17.7 16.6 17.9Z" fill="#E1E1E1"/>
</svg>
